<svg xmlns="http://www.w3.org/2000/svg" width="117.278" height="45.106" viewBox="0 0 117.278 45.106">
    <defs>
        <style>
            .cls-1{fill:#2f456d}.cls-2{isolation:isolate}
        </style>
    </defs>
    <g id="Group_4549" data-name="Group 4549" transform="translate(-231.898 -397.102)">
        <g id="Group_3938" data-name="Group 3938">
            <path id="Op_component_6" d="M260.171 410.869l-9.944-.007-3.052 12.315a4.064 4.064 0 0 0 4.323 5.273h3.565a5.935 5.935 0 0 0 5.322-4.321 2.91 2.91 0 0 0-.378-2.531 2.572 2.572 0 0 0-2.061-.908h-2.324v.008h-2.891l.919-3.645h4.09v-.011a4.836 4.836 0 0 0 4.333-3.526 2.268 2.268 0 0 0-.277-1.961 1.969 1.969 0 0 0-1.625-.686z" class="cls-1" data-name="Op component 6"/>
            <path id="Op_component_7" d="M254.6 397.1a22.553 22.553 0 1 0 22.4 22.709v-.154a22.48 22.48 0 0 0-22.4-22.555zm10.983 17.3a8.392 8.392 0 0 1-3.07 4.569c.118.129.237.255.344.394a6.562 6.562 0 0 1 1.037 5.651 9.554 9.554 0 0 1-8.563 7.065v.013H251.4a7.926 7.926 0 0 1-6.386-2.913 8.1 8.1 0 0 1-1.347-6.876l3.395-13.694a1.811 1.811 0 0 1 1.753-1.378l11.688.008v.018a5.532 5.532 0 0 1 4.14 2.066 5.9 5.9 0 0 1 .935 5.077z" class="cls-1" data-name="Op component 7"/>
        </g>
        <g id="Blog" class="cls-2">
            <g id="Group_4547" class="cls-2" data-name="Group 4547">
                <path id="Path_832" d="M283.707 436.953a.476.476 0 0 1-.15-.349v-12.981a.522.522 0 0 1 .14-.369.467.467 0 0 1 .36-.15h6.18a5.785 5.785 0 0 1 3.78 1.04 3.645 3.645 0 0 1 1.24 2.96 2.745 2.745 0 0 1-.51 1.66 3.293 3.293 0 0 1-1.13 1.019 3.216 3.216 0 0 1 1.38 1.191 3.26 3.26 0 0 1 .56 1.87 3.877 3.877 0 0 1-1.33 3.139 5.759 5.759 0 0 1-3.81 1.121h-6.36a.478.478 0 0 1-.35-.151zm6.11-8.309a1.537 1.537 0 0 0 1.14-.4 1.4 1.4 0 0 0 .4-1.04 1.367 1.367 0 0 0-.39-1.01 1.563 1.563 0 0 0-1.15-.389h-2.5v2.84zM290 434.4a1.591 1.591 0 0 0 1.21-.45 1.658 1.658 0 0 0-.01-2.239 1.6 1.6 0 0 0-1.2-.45h-2.68v3.139z" class="cls-1" data-name="Path 832"/>
                <path id="Path_833" d="M297.627 436.964a.472.472 0 0 1-.15-.36V423.4a.469.469 0 0 1 .15-.359.519.519 0 0 1 .37-.141h2.5a.481.481 0 0 1 .5.5v13.2a.5.5 0 0 1-.14.349.467.467 0 0 1-.36.151H298a.523.523 0 0 1-.373-.136z" class="cls-1" data-name="Path 833"/>
                <path id="Path_834" d="M304.407 436.134a4.524 4.524 0 0 1-1.47-3.33c-.013-.173-.02-.474-.02-.9s.007-.726.02-.9a4.485 4.485 0 0 1 1.51-3.311 6.763 6.763 0 0 1 7.66 0 4.485 4.485 0 0 1 1.51 3.311c.027.347.04.646.04.9s-.013.554-.04.9a4.521 4.521 0 0 1-1.471 3.33 6.984 6.984 0 0 1-7.739 0zm5.09-1.861a2.79 2.79 0 0 0 .46-1.57c.013-.133.02-.4.02-.8s-.007-.666-.02-.8a2.81 2.81 0 0 0-.46-1.56 1.689 1.689 0 0 0-2.44 0 2.81 2.81 0 0 0-.46 1.56l-.02.8.02.8a2.79 2.79 0 0 0 .46 1.57 1.714 1.714 0 0 0 2.44 0z" class="cls-1" data-name="Path 834"/>
                <path id="Path_835" d="M317.638 440.884a4.352 4.352 0 0 1-1.721-1.431 2.679 2.679 0 0 1-.52-1.349.43.43 0 0 1 .161-.34.527.527 0 0 1 .359-.141h2.683a.514.514 0 0 1 .319.091.8.8 0 0 1 .221.309 1.8 1.8 0 0 0 .519.691 1.626 1.626 0 0 0 1 .25 1.716 1.716 0 0 0 1.28-.431 2 2 0 0 0 .42-1.429v-1.34a3.839 3.839 0 0 1-2.9 1.1 3.972 3.972 0 0 1-3.09-1.17 5.309 5.309 0 0 1-1.17-3.45l-.02-.54a6 6 0 0 1 1.091-3.819 3.819 3.819 0 0 1 3.189-1.38 3.971 3.971 0 0 1 1.8.39 3.8 3.8 0 0 1 1.3 1.049v-.719a.52.52 0 0 1 .139-.37.471.471 0 0 1 .361-.151h2.441a.516.516 0 0 1 .521.521v9.58a4.388 4.388 0 0 1-1.38 3.5 5.73 5.73 0 0 1-3.881 1.2 6.8 6.8 0 0 1-3.122-.621zm4.239-7.24a2.324 2.324 0 0 0 .48-1.321 5.538 5.538 0 0 0 .02-.6 5.225 5.225 0 0 0-.02-.6 2.3 2.3 0 0 0-.48-1.329 1.558 1.558 0 0 0-1.279-.511 1.5 1.5 0 0 0-1.281.53 2.585 2.585 0 0 0-.44 1.47l-.02.441a3.552 3.552 0 0 0 .38 1.79 1.441 1.441 0 0 0 1.361.649 1.547 1.547 0 0 0 1.279-.519z" class="cls-1" data-name="Path 835"/>
            </g>
        </g>
        <g id="Billingo" class="cls-2">
            <g id="Group_4548" class="cls-2" data-name="Group 4548">
                <path id="Path_836" d="M284.077 416.974a.469.469 0 0 1-.12-.33v-13.06a.5.5 0 0 1 .12-.351.413.413 0 0 1 .32-.129h5.46a4.5 4.5 0 0 1 3.2 1.019 3.493 3.493 0 0 1 1.08 2.66 3.179 3.179 0 0 1-1.74 2.96 3.625 3.625 0 0 1 1.44 1.3 3.584 3.584 0 0 1 .58 2.019 4.138 4.138 0 0 1-.51 2.041 3.667 3.667 0 0 1-1.51 1.459 4.93 4.93 0 0 1-2.38.541H284.4a.414.414 0 0 1-.323-.129zm5.48-7.93a2.934 2.934 0 0 0 1.98-.591 2.065 2.065 0 0 0 .68-1.649 1.908 1.908 0 0 0-.67-1.58 3.114 3.114 0 0 0-1.99-.54h-3.72v4.36zm.2 6.479a2.809 2.809 0 0 0 2.01-.689 2.524 2.524 0 0 0 0-3.551 2.836 2.836 0 0 0-2.01-.679h-3.92v4.919z" class="cls-1" data-name="Path 836"/>
                <path id="Path_837" d="M297.007 404.613a.444.444 0 0 1-.13-.33v-1.04a.482.482 0 0 1 .13-.34.436.436 0 0 1 .33-.139h1.18a.476.476 0 0 1 .48.479v1.04a.43.43 0 0 1-.14.33.48.48 0 0 1-.34.13h-1.18a.447.447 0 0 1-.33-.13zm.16 12.361a.447.447 0 0 1-.13-.33v-9.481a.443.443 0 0 1 .13-.329.448.448 0 0 1 .33-.131h.88a.446.446 0 0 1 .46.46v9.481a.445.445 0 0 1-.46.46h-.88a.447.447 0 0 1-.33-.13z" class="cls-1" data-name="Path 837"/>
                <path id="Path_838" d="M301.987 416.974a.447.447 0 0 1-.13-.33v-13.281a.441.441 0 0 1 .13-.34.467.467 0 0 1 .33-.12h.88a.445.445 0 0 1 .46.46v13.281a.445.445 0 0 1-.46.46h-.88a.445.445 0 0 1-.33-.13z" class="cls-1" data-name="Path 838"/>
                <path id="Path_839" d="M306.807 416.974a.447.447 0 0 1-.13-.33v-13.281a.441.441 0 0 1 .13-.34.469.469 0 0 1 .33-.12h.88a.445.445 0 0 1 .46.46v13.281a.445.445 0 0 1-.46.46h-.88a.447.447 0 0 1-.33-.13z" class="cls-1" data-name="Path 839"/>
                <path id="Path_840" d="M311.447 404.613a.444.444 0 0 1-.131-.33v-1.04a.483.483 0 0 1 .131-.34.433.433 0 0 1 .329-.139h1.181a.476.476 0 0 1 .48.479v1.04a.43.43 0 0 1-.14.33.482.482 0 0 1-.34.13h-1.181a.445.445 0 0 1-.329-.13zm.159 12.361a.45.45 0 0 1-.129-.33v-9.481a.445.445 0 0 1 .46-.46h.879a.446.446 0 0 1 .46.46v9.481a.445.445 0 0 1-.46.46h-.879a.449.449 0 0 1-.331-.13z" class="cls-1" data-name="Path 840"/>
                <path id="Path_841" d="M316.406 416.974a.447.447 0 0 1-.13-.33v-9.481a.443.443 0 0 1 .13-.329.449.449 0 0 1 .33-.131h.861a.418.418 0 0 1 .46.46v.881a4.276 4.276 0 0 1 1.389-1.141 4.354 4.354 0 0 1 1.971-.4 3.721 3.721 0 0 1 2.979 1.229 4.8 4.8 0 0 1 1.061 3.25v5.661a.446.446 0 0 1-.46.46h-.921a.443.443 0 0 1-.329-.13.448.448 0 0 1-.131-.33V411.1a3.3 3.3 0 0 0-.7-2.241 2.518 2.518 0 0 0-2-.8 2.665 2.665 0 0 0-2.04.81 3.131 3.131 0 0 0-.761 2.231v5.54a.445.445 0 0 1-.46.46h-.92a.448.448 0 0 1-.329-.126z" class="cls-1" data-name="Path 841"/>
                <path id="Path_842" d="M329.917 420.943a3.545 3.545 0 0 1-1.41-1.28 2.6 2.6 0 0 1-.41-1.239.415.415 0 0 1 .139-.311.459.459 0 0 1 .321-.13h.88a.489.489 0 0 1 .3.09.677.677 0 0 1 .2.33 2.392 2.392 0 0 0 2.54 1.6 3.263 3.263 0 0 0 2.219-.641 2.916 2.916 0 0 0 .721-2.259v-1.38a3.885 3.885 0 0 1-3.24 1.479 3.756 3.756 0 0 1-3.17-1.359 5.757 5.757 0 0 1-1.107-3.443l-.019-.559.019-.54a5.774 5.774 0 0 1 1.111-3.431 3.743 3.743 0 0 1 3.17-1.369 3.9 3.9 0 0 1 3.28 1.54v-.86a.48.48 0 0 1 .13-.34.427.427 0 0 1 .33-.141h.859a.427.427 0 0 1 .33.141.48.48 0 0 1 .13.34v9.7q0 4.62-4.659 4.62a5.438 5.438 0 0 1-2.664-.558zm4.729-6.21a3.745 3.745 0 0 0 .771-2.189c.013-.12.02-.354.02-.7s-.007-.561-.02-.681a3.745 3.745 0 0 0-.771-2.189 2.51 2.51 0 0 0-2.109-.911 2.393 2.393 0 0 0-2.091.911 4.273 4.273 0 0 0-.71 2.349l-.019.521.019.54a4.273 4.273 0 0 0 .71 2.349 2.391 2.391 0 0 0 2.091.911 2.507 2.507 0 0 0 2.109-.911z" class="cls-1" data-name="Path 842"/>
                <path id="Path_843" d="M341.086 416.063a4.85 4.85 0 0 1-1.27-3.3l-.02-.861.02-.859a4.8 4.8 0 0 1 1.29-3.3 5.2 5.2 0 0 1 6.74 0 4.808 4.808 0 0 1 1.29 3.3q.041.439.04.859t-.04.861a4.85 4.85 0 0 1-1.27 3.3 5.251 5.251 0 0 1-6.78 0zm5.42-1.07a3.522 3.522 0 0 0 .81-2.33q.02-.2.02-.76t-.02-.759a3.528 3.528 0 0 0-.81-2.331 2.951 2.951 0 0 0-4.06 0 3.528 3.528 0 0 0-.81 2.331l-.02.759.02.76a3.522 3.522 0 0 0 .81 2.33 2.946 2.946 0 0 0 4.06 0z" class="cls-1" data-name="Path 843"/>
            </g>
        </g>
    </g>
</svg>
